<svg xmlns="http://www.w3.org/2000/svg" viewBox="0 0 50 50"><defs><style>.cls-1{fill:#fff;}</style></defs><g id="Livello_2" data-name="Livello 2"><path class="cls-1" d="M2.82,35.19l.12.11,5.59,4.25a.52.52,0,0,0,.36.12l5.33,0,14,0,11.91,0a.75.75,0,0,0,.41-.12L42,38.53c1-.67,2.08-1.34,3.11-2a7.37,7.37,0,0,0,.8-.68.94.94,0,0,0,.2-.29.15.15,0,0,0-.1-.24.57.57,0,0,0-.22,0l-1.24,0-2.8-.05h-.2s.05-.07.08-.08c.33-.19.67-.37,1-.58a12.53,12.53,0,0,0,3.3-2.9,7.07,7.07,0,0,0,1.38-2.7,5.21,5.21,0,0,0,.2-1.47,6.35,6.35,0,0,0-.78-2.78A13.29,13.29,0,0,0,45,22.19a21.35,21.35,0,0,0-3.24-3.06l-.15-.1c0,.06,0,.11,0,.15a17,17,0,0,1-1.14,3.33c-.32.69-.58,1.4-.89,2.08a13.62,13.62,0,0,1-2.23,3.47,8.52,8.52,0,0,1-2.68,2.05,6,6,0,0,1-4.08.45A7.9,7.9,0,0,1,28,29.38a5,5,0,0,1-2-2.74,7.87,7.87,0,0,1-.25-3.34,12,12,0,0,1,1-3.37,4.43,4.43,0,0,1,1.21-1.63,10.37,10.37,0,0,1,.85-.63,16.32,16.32,0,0,1,2.41-1.27A34.84,34.84,0,0,1,36,14.76l.12-.06a1.14,1.14,0,0,0-.17-.15c-.22-.15-.44-.3-.67-.44A17.22,17.22,0,0,0,32.78,13a52.11,52.11,0,0,0-7.25-2.17,20.28,20.28,0,0,0-3.81-.49,14.38,14.38,0,0,0-3.21.23,11.41,11.41,0,0,0-2.29.62,19.58,19.58,0,0,0-4,2.29A27.21,27.21,0,0,0,9.4,15.82a32.76,32.76,0,0,0-3.74,4.07A15.08,15.08,0,0,0,3,25.1a12.89,12.89,0,0,0-.48,2.83,11.91,11.91,0,0,0,.07,1.79A10.11,10.11,0,0,0,3.52,33a9.44,9.44,0,0,0,1.35,2.18.36.36,0,0,1,0,.09C4.21,35.27,3.52,35.19,2.82,35.19ZM27.25,24.8a6.75,6.75,0,0,0,.3,1.93,3.37,3.37,0,0,0,1.73,2,4.68,4.68,0,0,0,1.94.49,6.6,6.6,0,0,0,2.9-.61,5.33,5.33,0,0,0,2-1.52,6.05,6.05,0,0,0,.74-1.37c1-2.32,2-4.64,2.94-7,.31-.71.66-1.4,1-2.09a3.54,3.54,0,0,1,.65-.93,11.87,11.87,0,0,1,1.93-1.61.46.46,0,0,1,.27-.07A3.84,3.84,0,0,0,44.83,14a.89.89,0,0,0,.64-1.14,2.41,2.41,0,0,0-.71-1.16,6.13,6.13,0,0,0-1.29-.85.61.61,0,0,0-.44,0,1.18,1.18,0,0,0-.82.76.55.55,0,0,0,0,.28,4,4,0,0,1-.05,1,.34.34,0,0,1-.17.28c-1.85,1.31-3.75,2.55-5.72,3.67a20.42,20.42,0,0,1-3,1.45,19.07,19.07,0,0,0-2.4,1.07,7.65,7.65,0,0,0-1.92,1.42,5.3,5.3,0,0,0-1.36,2.18A7,7,0,0,0,27.25,24.8Z"/><path d="M2.82,35.19c.7,0,1.39.08,2.1.12a.36.36,0,0,0,0-.09A9.44,9.44,0,0,1,3.52,33a10.11,10.11,0,0,1-.94-3.32,11.91,11.91,0,0,1-.07-1.79A12.89,12.89,0,0,1,3,25.1a15.08,15.08,0,0,1,2.67-5.21A32.76,32.76,0,0,1,9.4,15.82a27.21,27.21,0,0,1,2.79-2.34,19.58,19.58,0,0,1,4-2.29,11.41,11.41,0,0,1,2.29-.62,14.38,14.38,0,0,1,3.21-.23,20.28,20.28,0,0,1,3.81.49A52.11,52.11,0,0,1,32.78,13a17.22,17.22,0,0,1,2.48,1.11c.23.14.45.29.67.44a1.14,1.14,0,0,1,.17.15l-.12.06a34.84,34.84,0,0,0-4.87,1.64,16.32,16.32,0,0,0-2.41,1.27,10.37,10.37,0,0,0-.85.63,4.43,4.43,0,0,0-1.21,1.63,12,12,0,0,0-1,3.37,7.87,7.87,0,0,0,.25,3.34,5,5,0,0,0,2,2.74,7.9,7.9,0,0,0,2.63,1.18,6,6,0,0,0,4.08-.45,8.52,8.52,0,0,0,2.68-2.05,13.62,13.62,0,0,0,2.23-3.47c.31-.68.57-1.39.89-2.08a17,17,0,0,0,1.14-3.33s0-.09,0-.15l.15.1A21.35,21.35,0,0,1,45,22.19a13.29,13.29,0,0,1,1.68,2.45,6.35,6.35,0,0,1,.78,2.78,5.21,5.21,0,0,1-.2,1.47,7.07,7.07,0,0,1-1.38,2.7,12.53,12.53,0,0,1-3.3,2.9c-.32.21-.66.39-1,.58,0,0-.05,0-.08.08h.2l2.8.05,1.24,0a.57.57,0,0,1,.22,0,.15.15,0,0,1,.1.24.94.94,0,0,1-.2.29,7.37,7.37,0,0,1-.8.68c-1,.69-2.07,1.36-3.11,2l-1.48.94a.75.75,0,0,1-.41.12l-11.91,0-14,0-5.33,0a.52.52,0,0,1-.36-.12L2.94,35.3Z"/><path d="M27.25,24.8a7,7,0,0,1,.28-1.88,5.3,5.3,0,0,1,1.36-2.18,7.65,7.65,0,0,1,1.92-1.42,19.07,19.07,0,0,1,2.4-1.07,20.42,20.42,0,0,0,3-1.45c2-1.12,3.87-2.36,5.72-3.67a.34.34,0,0,0,.17-.28,4,4,0,0,0,.05-1,.55.55,0,0,1,0-.28,1.18,1.18,0,0,1,.82-.76.61.61,0,0,1,.44,0,6.13,6.13,0,0,1,1.29.85,2.41,2.41,0,0,1,.71,1.16A.89.89,0,0,1,44.83,14a3.84,3.84,0,0,1-1.17.15.46.46,0,0,0-.27.07,11.87,11.87,0,0,0-1.93,1.61,3.54,3.54,0,0,0-.65.93c-.35.69-.7,1.38-1,2.09-1,2.31-2,4.63-2.94,7a6.05,6.05,0,0,1-.74,1.37,5.33,5.33,0,0,1-2,1.52,6.6,6.6,0,0,1-2.9.61,4.68,4.68,0,0,1-1.94-.49,3.37,3.37,0,0,1-1.73-2A6.75,6.75,0,0,1,27.25,24.8Z"/></g></svg>