<svg id="Livello_1" data-name="Livello 1" xmlns="http://www.w3.org/2000/svg" viewBox="0 0 50 50"><path d="M25,47.5H17.7a1.21,1.21,0,0,1-.33-.07.19.19,0,0,1-.1-.1s.05-.07.09-.08a1.59,1.59,0,0,1,.39-.09,13.13,13.13,0,0,0,3.05-.5,5.73,5.73,0,0,0,2-1.09,3.36,3.36,0,0,0,.89-1.28,2.2,2.2,0,0,0,.12-.67c.06-1.42.14-2.83.17-4.25q.09-3.61.13-7.23c0-1,0-2.05,0-3.07a6.59,6.59,0,0,0-.23-1.71,3.29,3.29,0,0,0-.95-1.55,21.32,21.32,0,0,1-2.57-3,18.22,18.22,0,0,1-2.59-4.94,12.69,12.69,0,0,1-.43-6.43c.21-1.2.39-2.41.6-3.61s.43-2.42.65-3.62c.1-.54.23-1.08.33-1.62,0-.1.06-.13.16-.13H30.86c.11,0,.15,0,.17.14.17,1,.36,2,.54,3l.63,3.55c.2,1.13.41,2.26.59,3.39a12.3,12.3,0,0,1,.09,3,12.09,12.09,0,0,1-.68,3.21,14.42,14.42,0,0,1-2.77,4.64,15.61,15.61,0,0,1-1.74,1.71c-.34.27-.69.52-1,.78a3.07,3.07,0,0,0-.25.26,3.21,3.21,0,0,0-.76,2c0,.57-.08,1.13-.11,1.7s0,.91-.05,1.36c0,1.11-.07,2.23-.08,3.34,0,1.51,0,3,0,4.52,0,1,.07,2,.14,3.08,0,.52.13,1.05.22,1.57a2.83,2.83,0,0,0,.66,1.3,4.11,4.11,0,0,0,1.36,1,7.81,7.81,0,0,0,2.77.88c.57.07,1.14.11,1.7.17a1.19,1.19,0,0,1,.32.1s.08.05.07.07a.14.14,0,0,1-.08.09,1.05,1.05,0,0,1-.34.08ZM30.33,2.89H19.78c-.25,0-.24,0-.28.24-.16,1.06-.31,2.13-.48,3.2-.13.81-.27,1.61-.4,2.42-.17,1.05-.35,2.09-.51,3.14-.09.63-.2,1.26-.24,1.89A11,11,0,0,0,18.19,17a14.91,14.91,0,0,0,1.66,4,6.56,6.56,0,0,0,.68,1,8.6,8.6,0,0,0,2,1.76,4.94,4.94,0,0,0,2.19.75,4.37,4.37,0,0,0,1.93-.29,7.57,7.57,0,0,0,2.39-1.51,5.54,5.54,0,0,0,.69-.68,12.32,12.32,0,0,0,1.82-3.53,11.74,11.74,0,0,0,.52-2.69,11.45,11.45,0,0,0,0-2.34c-.09-.59-.19-1.19-.29-1.78-.24-1.49-.5-3-.74-4.46S30.57,4.36,30.33,2.89Z"/></svg>