<svg xmlns="http://www.w3.org/2000/svg" viewBox="0 0 50 50"><g id="Livello_2" data-name="Livello 2"><path d="M35.07,16.85a27.84,27.84,0,0,1-.36,3.87c-.12.76-.24,1.53-.33,2.3a3.12,3.12,0,0,0,.43,2,5.34,5.34,0,0,0,1,1.16,17.55,17.55,0,0,0,2.42,1.87c1.05.71,2.1,1.42,3.13,2.15a7.49,7.49,0,0,1,3,4.51,10.77,10.77,0,0,1,.26,3.3,12.66,12.66,0,0,1-1.71,5.48,5.07,5.07,0,0,1-1.62,1.67A11.83,11.83,0,0,1,38,46.7a15.42,15.42,0,0,1-2.51.56,19.15,19.15,0,0,1-2.27.21c-.59,0-1.18,0-1.76,0s-1.22-.08-1.82-.15a28.59,28.59,0,0,1-6.52-1.57,23.47,23.47,0,0,1-4-1.87,34.53,34.53,0,0,1-5.69-4.15,27,27,0,0,1-5.25-6.32A21.71,21.71,0,0,1,6,27.73a20,20,0,0,1-.53-3.44,18.83,18.83,0,0,1,0-2.81A21.19,21.19,0,0,1,6.26,17a22,22,0,0,1,4-7.75,22.47,22.47,0,0,1,3.57-3.39,18.61,18.61,0,0,1,4.21-2.49,11.06,11.06,0,0,1,2.75-.78,9.64,9.64,0,0,1,2.08-.08,10.4,10.4,0,0,1,2.57.58,14.86,14.86,0,0,1,3.33,1.56,15.51,15.51,0,0,1,3,2.5,12,12,0,0,1,2.89,5.91A17.78,17.78,0,0,1,35.07,16.85ZM7.9,22.13a15,15,0,0,0,.44,3.2A21.4,21.4,0,0,0,9.72,29a32.25,32.25,0,0,0,2.77,4.67c.69,1,1.45,1.9,2.2,2.84a3,3,0,0,0,1.19.9,1.51,1.51,0,0,0,.43.11,1.35,1.35,0,0,0,1-.33,3.64,3.64,0,0,0,.83-1,26.6,26.6,0,0,0,1.67-2.93A22.33,22.33,0,0,1,22,29.85c1.25-1.66,2.65-3.19,4.05-4.71,1.05-1.15,2.13-2.27,3.18-3.41.57-.62,1.13-1.25,1.65-1.91a7,7,0,0,0,1.37-5.91,8,8,0,0,0-1.29-3A17.2,17.2,0,0,0,27.37,7a7.68,7.68,0,0,0-3.91-1.76,5.23,5.23,0,0,0-1.25,0,6.94,6.94,0,0,0-1.69.47,14.33,14.33,0,0,0-2.94,1.7,29.16,29.16,0,0,0-6.73,6.89,19,19,0,0,0-2,3.55A9.8,9.8,0,0,0,7.9,22.13ZM32.19,44.86a21.59,21.59,0,0,0,3.21-.25,11,11,0,0,0,2.9-.86A6.64,6.64,0,0,0,41,41.62a8.27,8.27,0,0,0,1.45-3.72,5.16,5.16,0,0,0-.67-3.37,7.59,7.59,0,0,0-3.8-3.2L37.15,31a10.1,10.1,0,0,1-2.4-1.18,5.47,5.47,0,0,1-1.3-1.24,7,7,0,0,1-.93-1.85,5,5,0,0,0-1-1.59,2.35,2.35,0,0,0-.33-.3A1.93,1.93,0,0,0,30,24.5a2.17,2.17,0,0,0-1,.34,11.69,11.69,0,0,0-2.83,2.32,31.2,31.2,0,0,0-2.38,3.11c-1.4,2-2.71,4.12-3.95,6.25A5.29,5.29,0,0,0,19,38.74a1.7,1.7,0,0,0,.17,1,3.54,3.54,0,0,0,.62.87,8.24,8.24,0,0,0,1.51,1.19,17.86,17.86,0,0,0,2.85,1.47,14.12,14.12,0,0,0,2.43.88,21.82,21.82,0,0,0,3.57.6Z"/><path d="M16.1,35.71a.61.61,0,0,1-.07-.1,45.33,45.33,0,0,1-3.38-4.78,23.09,23.09,0,0,1-2.13-4.56,13.51,13.51,0,0,1-.66-4,10.48,10.48,0,0,1,.7-3.83A16.73,16.73,0,0,1,12.38,15,24.38,24.38,0,0,1,16,10.79a20.72,20.72,0,0,1,2.75-2.2,8.15,8.15,0,0,1,3.21-1.28,6,6,0,0,1,2.47.09,4.88,4.88,0,0,1,2.45,1.54c.71.8,1.4,1.61,2.09,2.42a7.11,7.11,0,0,1,1.51,2.89,5,5,0,0,1-.95,4.4,9.3,9.3,0,0,1-1.16,1.27A28.77,28.77,0,0,0,26,22.37c-1.62,1.83-3.15,3.73-4.61,5.69A40.75,40.75,0,0,0,19,31.51c-.34.57-.63,1.17-1,1.75-.17.3-.36.6-.55.89a7.77,7.77,0,0,1-1.26,1.48S16.15,35.67,16.1,35.71Zm9.63-21.49a4,4,0,1,0-4,4A4,4,0,0,0,25.73,14.22Z"/><path d="M31.89,43.48c-.8,0-1.6-.08-2.4-.17a18.35,18.35,0,0,1-5.57-1.6,13.13,13.13,0,0,1-2.21-1.41,2.9,2.9,0,0,1-.63-.58,1.82,1.82,0,0,1-.2-2.06,42.63,42.63,0,0,1,4.45-6.81c.94-1.17,1.88-2.35,2.89-3.46.3-.33.62-.63.94-.93a.89.89,0,0,1,1.36.13,3,3,0,0,1,.51.86,9,9,0,0,0,1.65,2.71,8.53,8.53,0,0,0,3.7,2.53,6.81,6.81,0,0,1,1.84.94,5.29,5.29,0,0,1,2.13,3.26,2.49,2.49,0,0,1,0,1.12,7.38,7.38,0,0,1-1.66,3.21,6,6,0,0,1-2.3,1.54,9.85,9.85,0,0,1-1.94.49A14.34,14.34,0,0,1,31.89,43.48Z"/><path d="M21.76,17a2.76,2.76,0,1,1,0-5.52,2.77,2.77,0,0,1,2.74,2.78A2.74,2.74,0,0,1,21.76,17Z"/></g></svg>