<svg xmlns="http://www.w3.org/2000/svg" viewBox="0 0 50 50"><g id="Livello_2" data-name="Livello 2"><path d="M23.51,38.85c-.33-.57-.67-1.12-1-1.69a34.5,34.5,0,0,1-3-6.59,30.71,30.71,0,0,1-1-4.13c-.14-.84-.26-1.7-.36-2.55a22.42,22.42,0,0,1-.11-3.48c0-.77.08-1.55.15-2.33A27,27,0,0,1,19.53,12a28.42,28.42,0,0,1,2.14-5,24.27,24.27,0,0,1,2.47-3.64c.24-.28.49-.55.75-.82.09-.1.13-.09.22,0a17.35,17.35,0,0,1,2.1,2.65,27.4,27.4,0,0,1,3.34,7,26.12,26.12,0,0,1,1,4.17c.12.85.21,1.71.29,2.56a22.24,22.24,0,0,1,.08,3.16c0,.71-.09,1.42-.16,2.12a31.66,31.66,0,0,1-.8,4.45,31.31,31.31,0,0,1-2.5,6.62c-.59,1.17-1.25,2.31-1.94,3.42,0,.06-.06.09,0,.15A20.78,20.78,0,0,1,28,40.77a20.58,20.58,0,0,1,2.21,3.73A9.92,9.92,0,0,1,31,47.28c0,.07,0,.13,0,.21l-.63-.1c-.4-.07-.79-.13-1.19-.22a15.25,15.25,0,0,1-3.1-1c-.36-.16-.7-.36-1-.54a.13.13,0,0,0-.12,0,9.94,9.94,0,0,1-2.88,1.18c-.6.16-1.22.31-1.83.44-.4.09-.8.13-1.21.2l-.08,0,.09-.62a11,11,0,0,1,1.28-3.52,23.63,23.63,0,0,1,2.49-3.69C23,39.39,23.28,39.13,23.51,38.85ZM19.28,13.46v0a.41.41,0,0,0,.05.09c.16.25.32.51.49.75a6.29,6.29,0,0,0,3.33,2.39,7.35,7.35,0,0,0,3.58.1A4.76,4.76,0,0,0,29,15.67,5.09,5.09,0,0,0,30.49,13a.3.3,0,0,0,0-.1c-.13.11-.25.22-.37.31a7.41,7.41,0,0,1-2.41,1.18,10.87,10.87,0,0,1-2.53.41,9.4,9.4,0,0,1-2.37-.16A14.88,14.88,0,0,1,20,13.76ZM24,9.24a1.47,1.47,0,0,0,.32.88.87.87,0,0,0,1.35,0,1.42,1.42,0,0,0,0-1.89.84.84,0,0,0-1.25,0A1.36,1.36,0,0,0,24,9.24Z"/></g></svg>