<svg xmlns="http://www.w3.org/2000/svg" viewBox="0 0 50 50"><g id="Livello_2" data-name="Livello 2"><path d="M47.5,42.89H9.77a.21.21,0,0,1-.24-.16l-2.16-5L4.92,32.07c-.61-1.42-1.24-2.85-1.85-4.28a10.08,10.08,0,0,1-.52-1.55,2,2,0,0,1,.52-1.83,6.32,6.32,0,0,1,1.24-1.07l.1-.07a2.45,2.45,0,0,1-.4-1.7,2.4,2.4,0,0,1,.56-1.27,2.33,2.33,0,0,1,2.76-.59,2.37,2.37,0,0,1,.46-2.91,2.33,2.33,0,0,1,2.6-.41c-.07-.24-.15-.49-.21-.75a2.57,2.57,0,0,1,0-1.17A2.1,2.1,0,0,1,11.75,13a2.27,2.27,0,0,1,1.68.09l.07,0-.24-.8a2,2,0,0,1,.43-2,2.26,2.26,0,0,1,1.47-.82,2.51,2.51,0,0,1,1.29.25l.15.07h0c.1-.18.2-.36.29-.55a5,5,0,0,1,1.24-1.48,3,3,0,0,1,2.26-.65,3.44,3.44,0,0,1,1.14.26,3,3,0,0,1,1.66,2,.37.37,0,0,0,.17.25L26.66,12l8.28,5.78,9,6.31,3.41,2.38a.2.2,0,0,1,.11.2V42.89ZM45.2,29.24,6,29.09l.74,1.59L11.55,41a.2.2,0,0,0,.22.14H45.34C45.3,37.17,45.25,33.21,45.2,29.24Zm-23.67-18a1.06,1.06,0,0,0-.55.15,26.93,26.93,0,0,0-5.05,3.84,46.59,46.59,0,0,0-7.09,8.92,2.72,2.72,0,0,0-.27.63.48.48,0,0,0,.2.56c.38.19.65.18.89-.15a5.33,5.33,0,0,0,.31-.51,37.53,37.53,0,0,1,4.36-6,33.85,33.85,0,0,1,4.74-4.45A26.58,26.58,0,0,1,22,12.3a.47.47,0,0,0,.23-.58A.65.65,0,0,0,21.53,11.27Z"/><path d="M23.09,34.24A1.16,1.16,0,0,1,22,33.1a1.15,1.15,0,1,1,1.14,1.14Z"/><path d="M33.42,33.1a1.12,1.12,0,0,1-1.15,1.13,1.14,1.14,0,1,1,1.15-1.13Z"/><path d="M11.47,32.73a1,1,0,1,1,1,1A1,1,0,0,1,11.47,32.73Z"/><path d="M36.86,37.3a1,1,0,0,1-1-1,1,1,0,0,1,1-1,1,1,0,1,1,0,2.06Z"/><path d="M18.74,33.75a1,1,0,1,1,0,2,1,1,0,0,1-1-1A1,1,0,0,1,18.74,33.75Z"/><path d="M28,38.63a.91.91,0,0,1-.92-.91.92.92,0,0,1,.92-.94,1,1,0,0,1,.93.93A.93.93,0,0,1,28,38.63Z"/><path d="M40.64,33.34a.75.75,0,0,1-.76-.77.76.76,0,1,1,.76.77Z"/><path d="M13.84,39.63a.75.75,0,0,1-.76-.75.76.76,0,0,1,1.52,0A.75.75,0,0,1,13.84,39.63Z"/><path d="M42.32,38.4a.61.61,0,1,1-.6-.61A.61.61,0,0,1,42.32,38.4Z"/></g></svg>