<svg xmlns="http://www.w3.org/2000/svg" viewBox="0 0 50 50"><g id="Livello_2" data-name="Livello 2"><path d="M31.21,2.5c.08.41.17.8.24,1.2.19,1,.39,2,.57,3,.26,1.46.53,2.92.76,4.38.21,1.25.38,2.5.55,3.76.13,1,.24,2.05.33,3.08a27.08,27.08,0,0,1,.13,3.49,15.3,15.3,0,0,1-.61,4.14,7.61,7.61,0,0,1-1.44,2.67,8.87,8.87,0,0,1-2.15,1.75c-.91.56-1.82,1.09-2.72,1.65a2.23,2.23,0,0,0-1,1.12,1.19,1.19,0,0,0-.1.46c0,1.44,0,2.87,0,4.31,0,.77,0,1.54,0,2.31s0,1.8,0,2.7A3.92,3.92,0,0,0,26.14,44a3,3,0,0,0,2.2,1.73c1.45.33,2.89.7,4.34,1a3.16,3.16,0,0,1,.54.2c.07,0,.17.12.17.18a.34.34,0,0,1-.16.21,3,3,0,0,1-.49.13,2.3,2.3,0,0,1-.37,0H17.63a4.43,4.43,0,0,1-.72-.09.57.57,0,0,1-.22-.11.17.17,0,0,1,0-.31,2.39,2.39,0,0,1,.44-.18c.95-.25,1.91-.5,2.86-.73.67-.17,1.34-.3,2-.48a2.54,2.54,0,0,0,1.32-.81A3.08,3.08,0,0,0,24.11,43c0-.68.07-1.36.08-2l.06-6.15c0-.57,0-1.15,0-1.72a1.53,1.53,0,0,0-.37-.89,3.46,3.46,0,0,0-1-.78c-.91-.55-1.83-1.08-2.73-1.65a8.28,8.28,0,0,1-2-1.67A8.12,8.12,0,0,1,16.68,25a15.21,15.21,0,0,1-.4-2.43,23.56,23.56,0,0,1,0-3.85c.08-1.09.18-2.18.32-3.26.17-1.44.37-2.88.59-4.31.2-1.24.43-2.47.66-3.71s.44-2.39.67-3.58c.08-.44.18-.87.26-1.3,0-.06,0-.1.11-.09H31.21Zm-11.65.33c0,.22-.08.42-.11.63-.13.78-.25,1.56-.38,2.33L18.71,8c-.2,1.26-.4,2.53-.59,3.8-.12.78-.24,1.57-.34,2.37s-.23,1.82-.33,2.74-.16,1.62-.21,2.42a22.18,22.18,0,0,0,0,3.26A13.31,13.31,0,0,0,17.58,25a6.46,6.46,0,0,0,2.15,3.59,8.15,8.15,0,0,0,1.56,1c.37.18.76.35,1.14.49a6.79,6.79,0,0,0,3.93.39,8.89,8.89,0,0,0,2.95-1.23,6.42,6.42,0,0,0,3.12-4.31A15.37,15.37,0,0,0,32.81,22a30.42,30.42,0,0,0-.12-3.57c0-.62-.12-1.24-.18-1.86s-.12-1.05-.19-1.57c-.09-.71-.18-1.42-.28-2.12l-.36-2.37c-.13-.84-.27-1.69-.4-2.53S31,6.29,30.87,5.45l-.33-2.07c0-.18-.07-.37-.1-.55Z"/></g></svg>