<svg xmlns="http://www.w3.org/2000/svg" viewBox="0 0 50 50"><g id="Livello_2" data-name="Livello 2"><path d="M39.2,47.5h-7a1.72,1.72,0,0,1-.38-.08s-.07-.06-.1-.09a.9.9,0,0,1,.09-.1,1.7,1.7,0,0,1,.7-.12,10.79,10.79,0,0,0,3.28-.64,4,4,0,0,0,1.63-1.12,3.7,3.7,0,0,0,.83-2.22c.08-2.74.05-5.48,0-8.23,0-1.36-.05-2.72-.09-4.07A15.41,15.41,0,0,0,38.07,29a3.13,3.13,0,0,0-1.2-2,20.91,20.91,0,0,1-2.5-2.48,17.45,17.45,0,0,1-3.06-5.17,10.81,10.81,0,0,1-.69-3,19,19,0,0,1-.08-2,17.34,17.34,0,0,1,.21-1.92c.12-.79.26-1.57.4-2.35s.25-1.55.39-2.33.31-1.79.48-2.68.34-1.68.5-2.52c0-.11.07-.14.19-.14h13c.14,0,.17,0,.19.17.25,1.27.51,2.54.75,3.81.14.75.25,1.51.38,2.26.18,1,.36,2,.52,3a19.75,19.75,0,0,1,.36,2.87,13.08,13.08,0,0,1-1.56,6.54,17.67,17.67,0,0,1-4.29,5.24c-.32.27-.68.5-1,.79a4.34,4.34,0,0,0-.62.78A2.7,2.7,0,0,0,40,29.37c-.1,1.2-.19,2.4-.24,3.6-.06,1.49-.1,3-.11,4.48,0,1.12,0,2.23.09,3.34a13.18,13.18,0,0,0,.31,2.58,7.08,7.08,0,0,0,.67,1.7,2.66,2.66,0,0,0,.84.83,5.76,5.76,0,0,0,2.58,1c.7.11,1.41.16,2.12.24a1.7,1.7,0,0,1,.32.1c.1,0,.09.13,0,.17a1.43,1.43,0,0,1-.41.09Zm-6-44.63a.51.51,0,0,0,0,.09l-.42,2.81c-.16,1-.33,2-.49,3s-.34,2-.5,3.08-.3,1.83-.4,2.74a10.11,10.11,0,0,0,.13,2.85,12,12,0,0,0,1,3.2,8.42,8.42,0,0,0,.9,1.61,9.09,9.09,0,0,0,2.46,2.16,6.23,6.23,0,0,0,4.74.85A6.87,6.87,0,0,0,43.24,24a6.69,6.69,0,0,0,1.85-1.9A12.7,12.7,0,0,0,47,16.9a10.23,10.23,0,0,0,.06-2.41c-.1-.86-.24-1.72-.38-2.57s-.32-2-.48-2.94-.29-1.72-.43-2.58l-.36-2.27-.18-1.26Z"/><path d="M15.41,7.54q.13.6.24,1.17c.2,1,.4,2,.58,3,.22,1.25.45,2.5.65,3.76s.34,2.29.48,3.44A34.34,34.34,0,0,1,17.71,24a12.74,12.74,0,0,1-.57,4,6.27,6.27,0,0,1-1.85,2.89,12,12,0,0,1-1.81,1.27c-.63.37-1.25.74-1.88,1.13a2.05,2.05,0,0,0-.93,1,1.15,1.15,0,0,0-.08.41c0,1.88,0,3.77,0,5.65,0,.91,0,1.82,0,2.73a2.81,2.81,0,0,0,1.2,2.34,4.08,4.08,0,0,0,1.37.49l3.72.93a1.25,1.25,0,0,1,.3.12c.16.08.17.22,0,.31a1.21,1.21,0,0,1-.38.12,2.12,2.12,0,0,1-.44,0H3.35a3.55,3.55,0,0,1-.55-.06,1.17,1.17,0,0,1-.24-.09c-.17-.1-.16-.25,0-.33A2.64,2.64,0,0,1,3,46.85L6.45,46a9.05,9.05,0,0,0,1.13-.32,2.44,2.44,0,0,0,1.47-1.87,6.28,6.28,0,0,0,.11-1.3c0-2.36.05-4.73.07-7.09,0-.15,0-.3,0-.44a1.6,1.6,0,0,0-.76-1.47c-.45-.31-.93-.58-1.39-.87-.66-.41-1.33-.8-2-1.24a6.59,6.59,0,0,1-2.68-4.25,15.63,15.63,0,0,1-.33-3.67,32.53,32.53,0,0,1,.25-3.7c.18-1.47.37-2.93.6-4.38s.55-3.19.84-4.77c.19-1,.39-2,.58-3,0-.08,0-.12.13-.11H15.41Zm-.68.29H5.17c-.08,0-.11,0-.12.12,0,.32-.11.64-.16,1l-.42,2.6c-.17,1-.33,2-.49,3s-.29,1.86-.41,2.8S3.34,19.11,3.24,20,3.07,21.6,3,22.4a18.64,18.64,0,0,0,0,3.08,11.26,11.26,0,0,0,.38,2.31,5.76,5.76,0,0,0,2,3A8.66,8.66,0,0,0,7.62,32a6,6,0,0,0,3.47.35A8.21,8.21,0,0,0,14,31.09,6.37,6.37,0,0,0,15.26,30a6.09,6.09,0,0,0,1.09-2,10.78,10.78,0,0,0,.44-2.45,21.25,21.25,0,0,0,0-3.29c-.06-.78-.14-1.56-.22-2.33s-.15-1.36-.25-2c-.12-.9-.26-1.81-.39-2.72l-.45-2.84c-.14-.88-.29-1.75-.43-2.63C14.93,9.06,14.83,8.46,14.73,7.83Z"/></g></svg>