<svg xmlns="http://www.w3.org/2000/svg" viewBox="0 0 50 50"><g id="Livello_2" data-name="Livello 2"><path d="M30.93,47.35c-.07.13-.18.13-.27.15H19.39a1.28,1.28,0,0,1-.27,0,.09.09,0,0,1-.05-.07s0-.05.05-.06a1.73,1.73,0,0,1,.31-.07,7.36,7.36,0,0,0,2.5-.53,4,4,0,0,0,1.5-1.07,6.36,6.36,0,0,0,.59-.93,1,1,0,0,0,.1-.43c0-.75,0-1.51,0-2.27q0-2.28,0-4.56c0-1.35,0-2.7-.07-4.05a7.2,7.2,0,0,0-.16-1.73,4.61,4.61,0,0,0-.64-1.41A12.32,12.32,0,0,1,22.11,28a25.09,25.09,0,0,1-1.39-5.11c-.16-1.08-.31-2.16-.37-3.25-.07-1.35-.14-2.71-.16-4.07,0-1.8,0-3.61,0-5.42,0-1.05.06-2.1.1-3.15s.07-1.91.12-2.86c0-.51.05-1,.09-1.54,0,0,0-.06,0-.09h9c0,.12,0,.24,0,.35,0,1,.06,2.07.07,3.1,0,1.94.06,3.89.06,5.84,0,1.56,0,3.13-.07,4.69,0,1.05-.07,2.11-.15,3.16a25.31,25.31,0,0,1-1,5.65A22.72,22.72,0,0,1,27,29a13.41,13.41,0,0,1-.74,1.34,4.88,4.88,0,0,0-.52,1.08,5.24,5.24,0,0,0-.23,1.36c-.05,1.15-.11,2.3-.15,3.45q0,1.2,0,2.4c0,1.11,0,2.22.05,3.33a14.41,14.41,0,0,0,.21,2.27,2.91,2.91,0,0,0,.62,1.21,4.34,4.34,0,0,0,1.31,1.06,6.08,6.08,0,0,0,2.2.69c.3,0,.61.06.92.09A2,2,0,0,1,30.93,47.35ZM21,2.7c0,.58-.05,1.15-.07,1.71,0,.91-.07,1.83-.1,2.74s-.06,1.7-.08,2.55c0,1.4-.07,2.79-.06,4.18,0,1.55.06,3.1.11,4.64a32.61,32.61,0,0,0,.28,3.57,28.28,28.28,0,0,0,.83,4,5.57,5.57,0,0,0,1,2,3.19,3.19,0,0,0,.86.82,2,2,0,0,0,1.12.29,1.8,1.8,0,0,0,1-.42,5.62,5.62,0,0,0,1.31-1.52,3.11,3.11,0,0,0,.22-.4,24.11,24.11,0,0,0,1.45-6.7c.09-1.33.16-2.66.18-4q0-3.15,0-6.3c0-2.35-.07-4.71-.1-7.07,0,0,0,0,0-.07Z"/></g></svg>