<svg id="Livello_1" data-name="Livello 1" xmlns="http://www.w3.org/2000/svg" viewBox="0 0 331.37 296.1"><defs><style>.cls-1{fill:#dcc69f;}</style></defs><title>vitorino-bianchi</title><path class="cls-1" d="M264.35,39.34C272,30,269.2,22.42,265.57,17.06c-4.64-5.76-11.56-5.83-19.24-5.71L211,11.42V7.2H339.43l-.21,4.48c-7.31.82-20.66,2.85-27.73,6.11s-11.34,5.43-12.77,6.51c-1.27.82-3.17,2.11-5.67,3.86s-5.7,4.36-9.58,7.73-8.61,7.68-14.2,12.83S19.68,303.3,19.68,303.3H9.41C14,281.32,67.26,29,67.59,26.58c3.8-17.29-28.05-15.13-28.05-15.13H8.06V7.22H207.72l-.05,4.2s-47.61-.18-51.38-.18c-9.3,0-32.89,3.22-36.92,20.82,0,0-46.49,195-48.5,203.16Z" transform="translate(-8.06 -7.2)"/></svg>